<?xml version="1.0" standalone="no"?>
<!DOCTYPE svg PUBLIC "-//W3C//DTD SVG 20010904//EN"
 "http://www.w3.org/TR/2001/REC-SVG-20010904/DTD/svg10.dtd">
<svg version="1.0" xmlns="http://www.w3.org/2000/svg"
 width="50.000000pt" height="50.000000pt" viewBox="0 0 50.000000 50.000000"
 preserveAspectRatio="xMidYMid meet">

<g transform="translate(0.000000,50.000000) scale(0.100000,-0.100000)"
fill="#000000" stroke="none">
<path d="M190 494 c-27 -11 -40 -37 -40 -81 l0 -43 100 0 100 0 0 43 c0 64
-16 80 -86 84 -33 1 -66 0 -74 -3z m70 -49 c0 -8 7 -15 15 -15 8 0 15 -4 15
-10 0 -5 -7 -10 -15 -10 -8 0 -15 -7 -15 -15 0 -8 -4 -15 -10 -15 -5 0 -10 7
-10 15 0 8 -7 15 -15 15 -8 0 -15 5 -15 10 0 6 7 10 15 10 8 0 15 7 15 15 0 8
5 15 10 15 6 0 10 -7 10 -15z"/>
<path d="M147 344 c-13 -13 -7 -49 13 -81 26 -44 82 -61 132 -40 40 17 71 64
66 100 -3 21 -9 22 -104 25 -55 1 -103 0 -107 -4z"/>
<path d="M190 193 c0 -15 53 -143 60 -143 7 0 60 124 60 140 0 6 -27 10 -60
10 -33 0 -60 -3 -60 -7z"/>
<path d="M102 169 c-61 -30 -82 -62 -82 -120 l0 -49 111 0 c85 0 110 3 106 13
-3 6 -20 49 -38 95 -17 45 -37 82 -43 82 -6 0 -30 -10 -54 -21z"/>
<path d="M301 108 c-18 -46 -36 -89 -38 -95 -4 -10 21 -13 106 -13 l111 0 0
49 c0 59 -25 95 -84 122 -23 10 -46 19 -51 19 -6 0 -25 -37 -44 -82z"/>
</g>
</svg>
